<?xml version="1.0" encoding="UTF-8"?>
<!DOCTYPE svg PUBLIC "-//W3C//DTD SVG 1.1//EN" "http://www.w3.org/Graphics/SVG/1.1/DTD/svg11.dtd">
<!-- Creator: CorelDRAW 2018 (64 Bit) -->
<svg xmlns="http://www.w3.org/2000/svg" xml:space="preserve" width="60mm" height="60mm" version="1.1" style="shape-rendering:geometricPrecision; text-rendering:geometricPrecision; image-rendering:optimizeQuality; fill-rule:evenodd; clip-rule:evenodd"
viewBox="0 0 6000 6000"
 xmlns:xlink="http://www.w3.org/1999/xlink">
 <defs>
  <style type="text/css">
   <![CDATA[
    .str0 {stroke:#88E8E6;stroke-width:25;stroke-miterlimit:22.9256}
    .fil0 {fill:none}
    .fil1 {fill:black}
   ]]>
  </style>
 </defs>
 <g id="Camada_x0020_1">
  <metadata id="CorelCorpID_0Corel-Layer"/>
  <ellipse class="fil0 str0" cx="2982.68" cy="3013.88" rx="2857.5" ry="2786.94"/>
  <g id="_2448081228304">
   <rect class="fil1" transform="matrix(0.119285 -0.119285 0.119285 0.119285 2511.48 4419.08)" width="423.33" height="299.3"/>
   <path class="fil1" d="M3857.87 4822.32c-78.87,0 -142.83,-63.96 -142.83,-142.83 0,-19.72 -15.99,-35.71 -35.7,-35.71 -19.72,0 -35.71,15.99 -35.71,35.71 0,78.87 -63.96,142.83 -142.83,142.83 -19.71,0 -35.71,15.99 -35.71,35.7 0,19.72 16,35.71 35.71,35.71 78.87,0 142.83,63.96 142.83,142.83 0,19.72 15.99,35.71 35.71,35.71 19.71,0 35.7,-15.99 35.7,-35.71 0,-78.87 63.96,-142.83 142.83,-142.83 19.72,0 35.71,-15.99 35.71,-35.71 0,-19.71 -15.99,-35.7 -35.71,-35.7l0 0zm-178.53 167.46c-4.33,-49.52 -25.67,-96.11 -60.34,-131.75 23.88,-15.89 44.46,-36.46 60.34,-60.36 15.88,23.9 36.45,44.47 60.35,60.36 -23.9,15.88 -44.47,36.45 -60.36,60.35l0.01 71.4z"/>
   <path class="fil1" d="M2251.06 4536.66c-78.87,0 -142.83,-63.96 -142.83,-142.83 0,-19.71 -15.99,-35.7 -35.7,-35.7 -19.72,0 -35.71,15.99 -35.71,35.7 0,78.87 -63.96,142.83 -142.83,142.83 -19.71,0 -35.7,15.99 -35.7,35.71 0,19.72 15.99,35.71 35.7,35.71 78.87,0 142.83,63.96 142.83,142.82 0,19.72 15.99,35.71 35.71,35.71 19.71,0 35.7,-15.99 35.7,-35.71 0,-78.86 63.96,-142.82 142.83,-142.82 19.72,0 35.71,-15.99 35.71,-35.71 0,-19.72 -15.99,-35.71 -35.71,-35.71l0 0zm-178.53 96.06c-15.88,-23.89 -36.46,-44.47 -60.36,-60.36 23.9,-15.87 44.48,-36.45 60.36,-60.35 15.88,23.9 36.46,44.48 60.35,60.37 -23.89,15.87 -44.47,36.45 -60.36,60.34l0.01 0z"/>
   <path class="fil1" d="M3992.88 3800.21l-428.48 -535.6c-6.78,-8.46 -17.04,-13.4 -27.88,-13.4 0,0 -0.01,0 -0.01,0l-1249.74 0.01c-0.01,-0.01 -0.03,-0.01 -0.04,-0.01 -11.36,0 -22.05,5.42 -28.77,14.57l-392.78 535.61c-4.49,6.12 -6.91,13.52 -6.91,21.11 0,5.61 1.33,11.15 3.87,16.16 1.26,2.32 2.78,4.51 4.5,6.5l0 0 1035.5 1249.74 0.32 -0.28c6.56,8.33 16.58,13.2 27.17,13.2 10.61,0 20.63,-4.87 27.18,-13.2l0.32 0.28 1035.5 -1249.74 0 0c1.88,-2.17 3.49,-4.58 4.78,-7.14 2.27,-4.78 3.45,-10.02 3.45,-15.31 0,-8.19 -2.82,-16.14 -7.98,-22.5zm-788.09 58.02l-275.3 1070.64 -275.3 -1070.64 550.6 0zm-533.6 -71.41l258.3 -430.52 258.31 430.52 -516.61 0zm321.36 -464.19l484.44 0 -227.96 427.45 -256.48 -427.45zm-384.42 430.48l-258.31 -430.48 516.61 0 -258.3 430.48zm247.05 1173.51l-885.24 -1068.39 610.59 0 274.65 1068.39zm423.35 -1068.39l610.58 0 -885.31 1068.39 274.73 -1068.39zm31.85 -71.41l232.09 -435.27 233.95 292.44 -132.79 0 0 71.41 189.92 0 57.14 71.42 -580.31 0zm-1293.56 -71.42l162.83 0 0 -71.41 -110.45 0 214.6 -292.62 261.27 435.45 -580.59 0 52.34 -71.42z"/>
   <rect class="fil1" transform="matrix(0.129546 -0.108053 0.108053 0.129546 2116.44 3952.61)" width="423.33" height="3306.23"/>
   <rect class="fil1" x="3500.8" y="3643.99" width="71.41" height="71.41"/>
  </g>
  <g id="_2448081228016">
   <path class="fil1" d="M3381.32 2395.13c0,176.84 -9.38,304.3 -143.64,447.09 -203.34,216.25 -597.65,167.09 -752.73,-14.87 -223.13,-261.81 -144.44,-461.07 -144.44,-727.59 -155.15,12.91 -375.58,518.66 2.96,897.2 375.05,375.05 1069.83,237.36 1305.27,-235.96 277.61,-558.09 -183.19,-1083.15 -317.99,-1440.51 -30.61,-81.15 -53.89,-201.42 -56.14,-291.46 -4.83,-193.93 98.17,-371.54 249.85,-473.93 107.97,-72.89 183.76,-85.21 222.55,-143.14 -65.59,-97.96 -649.71,-248.2 -920.55,232.77 -131.27,233.1 -101.96,415.87 -5.95,651.53 115.76,284.13 560.81,783.09 560.81,1098.87z"/>
   <path class="fil1" d="M2031.08 1354.31c-313.41,0 -452.37,227.69 -518.63,467.27 -59.22,214.13 343.1,303.5 533.22,166.18 54.27,-39.2 109.96,-77.76 111.99,-169.3 -249.3,166.94 -506.34,122.46 -506.34,28.13 0,-111.46 70.34,-199.4 150.21,-257.68 104.5,-76.24 129.67,-79.88 299.87,-79.88l119.28 -176.09c33.53,-39.87 3.05,-29.85 63.57,-34.88 8.74,105.07 6.64,76.08 -6.94,191.01 -13.83,117.02 68.96,111.09 200.45,234.34 151.98,142.45 196.12,173.66 324.13,365.05 112.55,168.28 129.35,216.39 129.35,419.19 0,139.54 -170.48,187.69 -281.3,196.91 118.28,223.54 478.21,95.81 478.21,-182.85 0,-292.86 -141.33,-477.7 -326.78,-685.9 -138.95,-155.99 -90.51,-90.58 -204.25,-203.64 -48.38,-48.1 -99.14,-71.82 -133.24,-134.17 -40.83,-74.64 16.91,-382.79 -137.44,-382.79 -137.43,0 -269.27,127.12 -295.36,239.1z"/>
  </g>
  <g id="_2448081224688">
   <rect class="fil1" transform="matrix(0.0673016 -0.0673016 0.0673016 0.0673016 4195.97 4698.08)" width="423.33" height="299.3"/>
   <path class="fil1" d="M4955.61 4925.59c-44.49,0 -80.58,-36.08 -80.58,-80.58 0,-11.13 -9.02,-20.15 -20.15,-20.15 -11.12,0 -20.14,9.02 -20.14,20.15 0,44.5 -36.09,80.58 -80.59,80.58 -11.12,0 -20.14,9.03 -20.14,20.15 0,11.13 9.02,20.15 20.14,20.15 44.5,0 80.59,36.08 80.59,80.58 0,11.13 9.02,20.15 20.14,20.15 11.13,0 20.15,-9.02 20.15,-20.15 0,-44.5 36.09,-80.58 80.58,-80.58 11.13,0 20.15,-9.02 20.15,-20.15 0,-11.12 -9.02,-20.15 -20.15,-20.15l0 0zm-100.73 94.49c-2.44,-27.94 -14.48,-54.23 -34.04,-74.34 13.47,-8.96 25.08,-20.57 34.05,-34.05 8.95,13.48 20.56,25.09 34.05,34.05 -13.49,8.96 -25.1,20.57 -34.06,34.05l0 40.29z"/>
   <path class="fil1" d="M4049.04 4764.43c-44.5,-0.01 -80.59,-36.09 -80.59,-80.59 0,-11.12 -9.02,-20.15 -20.14,-20.15 -11.13,0 -20.15,9.03 -20.15,20.15 0,44.5 -36.09,80.58 -80.58,80.58 -11.13,0 -20.15,9.03 -20.15,20.15 0,11.12 9.02,20.15 20.15,20.15 44.49,0 80.58,36.08 80.58,80.58 0,11.13 9.02,20.15 20.15,20.15 11.12,0 20.14,-9.02 20.14,-20.15 0,-44.5 36.09,-80.58 80.59,-80.58 11.12,0 20.14,-9.03 20.14,-20.15 0,-11.12 -9.02,-20.15 -20.14,-20.15l0 0.01zm-100.73 54.19c-8.96,-13.48 -20.57,-25.09 -34.06,-34.05 13.49,-8.96 25.1,-20.57 34.06,-34.05 8.96,13.48 20.57,25.09 34.05,34.05 -13.48,8.96 -25.09,20.57 -34.06,34.05l0.01 0z"/>
   <path class="fil1" d="M5031.79 4348.91l-241.76 -302.19c-3.82,-4.78 -9.61,-7.56 -15.72,-7.56 -0.01,0 -0.01,0 -0.01,0l-705.12 0c0,0 -0.01,0 -0.02,0 -6.41,0 -12.44,3.06 -16.23,8.22l-221.61 302.19c-2.53,3.46 -3.9,7.63 -3.9,11.91 0,3.17 0.75,6.3 2.18,9.13 0.72,1.3 1.57,2.54 2.54,3.66l0 0 584.24 705.12 0.18 -0.16c3.7,4.7 9.35,7.45 15.33,7.45 5.99,0 11.64,-2.75 15.33,-7.45l0.19 0.16 584.24 -705.12 0 0c1.06,-1.22 1.97,-2.58 2.69,-4.03 1.28,-2.69 1.95,-5.65 1.95,-8.63 0,-4.62 -1.59,-9.11 -4.5,-12.7zm-444.65 32.74l-155.33 604.06 -155.32 -604.06 310.65 0zm-301.06 -40.29l145.73 -242.91 145.74 242.91 -291.47 0zm181.31 -261.9l273.33 0 -128.62 241.17 -144.71 -241.17zm-216.89 242.88l-145.74 -242.88 291.48 0 -145.74 242.88zm139.39 662.1l-499.46 -602.79 344.49 0 154.97 602.79zm238.85 -602.79l344.5 0 -499.5 602.79 155 -602.79zm17.97 -40.29l130.95 -245.59 132 165 -74.92 0 0 40.29 107.15 0 32.24 40.3 -327.42 0zm-729.83 -40.3l91.86 0 0 -40.29 -62.31 0 121.08 -165.1 147.41 245.69 -327.58 0 29.54 -40.3z"/>
   <rect class="fil1" transform="matrix(0.0730913 -0.0609644 0.0609644 0.0730913 3973.08 4434.9)" width="423.33" height="3306.23"/>
   <rect class="fil1" x="4754.15" y="4260.77" width="40.29" height="40.29"/>
  </g>
  <g id="_2448081222608">
   <rect class="fil1" transform="matrix(0.0673016 -0.0673016 0.0673016 0.0673016 1202.77 4726.28)" width="423.33" height="299.3"/>
   <path class="fil1" d="M1962.41 4953.79c-44.49,0 -80.58,-36.08 -80.58,-80.58 0,-11.13 -9.02,-20.15 -20.15,-20.15 -11.12,0 -20.14,9.02 -20.14,20.15 0,44.5 -36.09,80.58 -80.59,80.58 -11.12,0 -20.14,9.03 -20.14,20.15 0,11.13 9.02,20.15 20.14,20.15 44.5,0 80.59,36.08 80.59,80.58 0,11.13 9.02,20.15 20.14,20.15 11.13,0 20.15,-9.02 20.15,-20.15 0,-44.5 36.09,-80.58 80.58,-80.58 11.13,0 20.15,-9.02 20.15,-20.15 0,-11.12 -9.02,-20.15 -20.15,-20.15l0 0zm-100.73 94.49c-2.44,-27.94 -14.48,-54.23 -34.04,-74.34 13.47,-8.96 25.08,-20.57 34.05,-34.05 8.95,13.48 20.56,25.09 34.05,34.05 -13.49,8.96 -25.1,20.57 -34.06,34.05l0 40.29z"/>
   <path class="fil1" d="M1055.84 4792.63c-44.5,-0.01 -80.59,-36.09 -80.59,-80.59 0,-11.12 -9.02,-20.15 -20.14,-20.15 -11.13,0 -20.15,9.03 -20.15,20.15 0,44.5 -36.09,80.58 -80.58,80.58 -11.13,0 -20.15,9.03 -20.15,20.15 0,11.12 9.02,20.15 20.15,20.15 44.49,0 80.58,36.08 80.58,80.58 0,11.13 9.02,20.15 20.15,20.15 11.12,0 20.14,-9.02 20.14,-20.15 0,-44.5 36.09,-80.58 80.59,-80.58 11.12,0 20.14,-9.03 20.14,-20.15 0,-11.12 -9.02,-20.15 -20.14,-20.15l0 0.01zm-100.73 54.19c-8.96,-13.48 -20.57,-25.09 -34.06,-34.05 13.49,-8.96 25.1,-20.57 34.06,-34.05 8.96,13.48 20.57,25.09 34.05,34.05 -13.48,8.96 -25.09,20.57 -34.06,34.05l0.01 0z"/>
   <path class="fil1" d="M2038.59 4377.11l-241.76 -302.19c-3.82,-4.78 -9.61,-7.56 -15.72,-7.56 -0.01,0 -0.01,0 -0.01,0l-705.12 0c0,0 -0.01,0 -0.02,0 -6.41,0 -12.44,3.06 -16.23,8.22l-221.61 302.19c-2.53,3.46 -3.9,7.63 -3.9,11.91 0,3.17 0.75,6.3 2.18,9.13 0.72,1.3 1.57,2.54 2.54,3.66l0 0 584.24 705.12 0.18 -0.16c3.7,4.7 9.35,7.45 15.33,7.45 5.99,0 11.64,-2.75 15.33,-7.45l0.19 0.16 584.24 -705.12 0 0c1.06,-1.22 1.97,-2.58 2.69,-4.03 1.28,-2.69 1.95,-5.65 1.95,-8.63 0,-4.62 -1.59,-9.11 -4.5,-12.7zm-444.65 32.74l-155.33 604.06 -155.32 -604.06 310.65 0zm-301.06 -40.29l145.73 -242.91 145.74 242.91 -291.47 0zm181.31 -261.9l273.33 0 -128.62 241.17 -144.71 -241.17zm-216.89 242.88l-145.74 -242.88 291.48 0 -145.74 242.88zm139.39 662.1l-499.46 -602.79 344.49 0 154.97 602.79zm238.85 -602.79l344.5 0 -499.5 602.79 155 -602.79zm17.97 -40.29l130.95 -245.59 132 165 -74.92 0 0 40.29 107.15 0 32.24 40.3 -327.42 0zm-729.83 -40.3l91.86 0 0 -40.29 -62.31 0 121.08 -165.1 147.41 245.69 -327.58 0 29.54 -40.3z"/>
   <rect class="fil1" transform="matrix(0.0730913 -0.0609644 0.0609644 0.0730913 979.883 4463.1)" width="423.33" height="3306.23"/>
   <rect class="fil1" x="1760.95" y="4288.97" width="40.29" height="40.29"/>
  </g>
 </g>
</svg>
